<?xml version="1.0" encoding="UTF-8"?><svg id="Layer_2" xmlns="http://www.w3.org/2000/svg" viewBox="0 0 295.75 190.62"><defs><style>.cls-1{fill:#00b7ba;}.cls-2{fill:#eb107b;}</style></defs><g id="Layer_1-2"><g><g><path class="cls-1" d="M290.11,62.35s0,.01,0,.03c0,0,0-.03,0-.03-3.46-7.62-8.46-14.62-14.64-20.38-16.09-15.18-40-20.59-61.05-14.58C201.58,9.58,181.06-2.13,158.64,.33c-8.32,.82-16.08,3.28-23.17,6.46l-2.98,1.95s2.65-1.8,2.65-1.8c-14.59,7.28-26.02,20.6-30.98,36.02-2.5,7.57-3.29,15.67-2.58,23.57,.71,7.86,3.01,15.5,6.61,22.33,0,0-.21-4.74-.21-4.74l.21,4.74s6.9,12.03,6.9,12.03c3.86,6.88,9.99,17.09,14.1,23.93,2.47,3.93,4.85,7.91,7.4,11.8,.16,.31,.54,.46,.86,.31,.32-.15,.47-.53,.32-.86l-23.07-50.25h0c-12.45-26.47,.24-57.56,25.11-68.8,28.37-12.35,54.33-1.73,68.67,25.07,0,0,.55,1.12,.56,1.12,0,0,1.11-.51,1.11-.51,34.9-16.06,73.85,9.94,73.49,47.28-.1,15.41-7.45,30.61-19.62,40.11-5.16,4.41-14.34,8.18-20.45,11.11-21.08,9.87-63.25,29.63-84.72,39.83-.61-1.3-10.64-22.57-10.64-22.57-.36-.75-1.52-.25-1.18,.55,1.27,3.61,3.01,8.48,4.38,12.14,1.1,3.04,3.33,9.07,4.5,12.09l.91,2.41s2.86-1.03,2.86-1.03c32.82-12.02,66.73-25.58,98.94-39.21,31.76-13.57,45.88-51.83,31.49-83.05Zm.15,.52c-.03-.1-.11-.39-.12-.41,.03,.09,.06,.23,.12,.41Zm.81,2.85s-.04-.16-.05-.19c.02,.08,.04,.14,.05,.19Zm-.28-.98s0,0,0-.01c0,0,0,0,0,.01Zm-.17-.59c-.05-.16-.05-.16-.09-.32,.03,.11,.06,.21,.09,.32Zm-.12-.42c-.11-.38-.16-.56-.22-.79,.06,.23,.14,.5,.22,.79Z"/><path class="cls-1" d="M174.6,150.91c-1.59-.37-3.45-.06-5.59,.93l-4.99,2.33c-.12,.05-.19,.14-.23,.24-.04,.11-.03,.22,.02,.34l7.63,16.36c.05,.12,.14,.19,.25,.23,.11,.04,.22,.03,.34-.02l5.81-2.71c2.14-1,3.57-2.22,4.29-3.67,.73-1.46,.76-2.91,.08-4.35-.9-1.92-2.51-2.76-4.82-2.52,1.18-1.28,1.39-2.75,.6-4.43-.67-1.44-1.8-2.34-3.38-2.72Zm-3.52,8.5l-1.7-3.64,1.2-.56c.8-.37,1.48-.51,2.02-.42s.97,.45,1.25,1.07c.57,1.23,.05,2.23-1.58,2.98l-1.2,.56Zm6.74,2.83c.27,.58,.28,1.13,.02,1.65s-.78,.97-1.58,1.34l-2.02,.94-1.7-3.64,2.02-.94c.83-.39,1.51-.52,2.05-.4,.54,.12,.94,.47,1.21,1.05Z"/><path class="cls-1" d="M190.15,145.96c.04-.11,.03-.22-.02-.34l-1.2-2.58c-.05-.12-.14-.19-.25-.23-.11-.04-.22-.03-.34,.02l-10.72,5c-.12,.05-.19,.14-.23,.24-.04,.11-.03,.22,.02,.34l7.63,16.36c.05,.12,.14,.19,.25,.23,.11,.04,.22,.03,.34-.02l10.72-5c.12-.05,.19-.14,.23-.24,.04-.11,.03-.22-.02-.34l-1.2-2.58c-.05-.12-.14-.19-.24-.23-.11-.04-.22-.03-.34,.02l-6.93,3.23-1.7-3.66,6.34-2.96c.12-.05,.19-.14,.23-.24,.04-.11,.03-.22-.02-.34l-1.14-2.44c-.05-.12-.14-.19-.24-.23-.11-.04-.22-.03-.34,.02l-6.34,2.96-1.64-3.52,6.93-3.23c.12-.05,.19-.14,.23-.24Z"/><path class="cls-1" d="M194.54,140.42c-.05-.12-.14-.19-.24-.23-.11-.04-.22-.03-.34,.02l-3.4,1.58c-.12,.05-.19,.14-.23,.24-.04,.11-.03,.22,.02,.34l7.63,16.36c.05,.12,.14,.19,.25,.23,.11,.04,.22,.03,.34-.02l10.72-5c.12-.05,.19-.14,.23-.24,.04-.11,.03-.22-.02-.34l-1.2-2.58c-.05-.12-.14-.19-.24-.23-.11-.04-.22-.03-.34,.02l-6.93,3.23-6.24-13.38Z"/><path class="cls-1" d="M207.25,134.15c-.11-.04-.22-.03-.34,.02l-3.4,1.58c-.12,.05-.19,.14-.23,.24-.04,.11-.03,.22,.02,.34l7.63,16.36c.05,.12,.14,.19,.25,.23,.11,.04,.22,.03,.34-.02l3.39-1.58c.12-.05,.19-.14,.23-.24,.04-.11,.03-.22-.02-.34l-7.63-16.36c-.05-.12-.14-.19-.24-.23Z"/><path class="cls-1" d="M220.52,127.96c-.11-.04-.22-.03-.34,.02l-10.72,5c-.12,.05-.19,.14-.23,.24-.04,.11-.03,.22,.02,.34l7.63,16.36c.05,.12,.14,.19,.25,.23,.11,.04,.22,.03,.34-.02l10.72-5c.12-.05,.19-.14,.23-.24,.04-.11,.03-.22-.02-.34l-1.2-2.58c-.05-.12-.14-.19-.24-.23-.11-.04-.22-.03-.34,.02l-6.93,3.23-1.7-3.66,6.34-2.96c.12-.05,.19-.14,.23-.24,.04-.11,.03-.22-.02-.34l-1.14-2.44c-.05-.12-.14-.19-.24-.23-.11-.04-.22-.03-.34,.02l-6.34,2.96-1.64-3.52,6.93-3.23c.12-.05,.19-.14,.23-.24,.04-.11,.03-.22-.02-.34l-1.2-2.58c-.05-.12-.14-.19-.24-.23Z"/><path class="cls-1" d="M225.31,125.59l-3.57,1.66c-.17,.08-.27,.19-.3,.31-.03,.13,.03,.26,.18,.39l14.17,13.32c.07,.06,.15,.1,.23,.11,.09,.01,.17,0,.24-.03l2.87-1.34c.07-.03,.13-.09,.18-.17s.07-.16,.07-.25l-1.08-19.43c-.01-.2-.07-.32-.19-.39-.11-.06-.26-.05-.43,.03l-3.58,1.67c-.18,.08-.26,.23-.25,.43l1.12,12.92-9.18-9.16c-.15-.14-.31-.17-.49-.09Z"/><path class="cls-1" d="M251.84,117.08c.04-.11,.03-.22-.03-.34l-1.24-2.56c-.06-.11-.14-.19-.25-.23-.11-.04-.22-.03-.34,.03l-10.64,5.17c-.12,.06-.19,.14-.23,.25-.04,.11-.03,.22,.03,.34l7.89,16.23c.06,.12,.14,.19,.25,.23,.11,.04,.22,.03,.34-.03l10.64-5.17c.11-.06,.19-.14,.23-.25,.04-.11,.03-.22-.03-.34l-1.24-2.56c-.06-.11-.14-.19-.25-.23-.11-.04-.22-.03-.34,.03l-6.87,3.34-1.76-3.63,6.29-3.06c.12-.06,.19-.14,.23-.25,.04-.11,.03-.22-.03-.34l-1.18-2.42c-.06-.11-.14-.19-.25-.23-.11-.04-.22-.03-.34,.03l-6.3,3.06-1.7-3.49,6.87-3.34c.11-.06,.19-.14,.23-.25Z"/></g><g><path class="cls-2" d="M163.45,33.03c-5.75-5.88-13.01-10.18-20.79-12.72-.31-.1-.65,.04-.79,.34-.16,.35,.01,.76,.38,.89,27.87,12.28,37.34,45.13,22.25,70.96-14.23,26.55-28.58,54.58-42.05,81.82-28.4-13.82-57.23-27.34-85.91-40.39h0c-15.21-6.65-25.28-22.75-25.02-39.33,.05-5.57,1.21-11.13,3.32-16.41l.26-.91c-.14,.51-.26,.91-.26,.91,4.32-10.77,13.1-19.34,23.79-24,11.02-4.94,24.1-4.99,35.45-.75l5.42,2.02s1.73-4.62,1.73-4.62c5.92-16.2,16.99-28.77,34.58-32,.85-.13,.75-1.3-.1-1.3-4.41,.32-8.8,1.22-12.96,2.81-12.37,4.61-21.25,15.36-26.84,27-12.56-5.74-27.35-6.28-40.33-1.53C7.82,55.64-6.99,87.35,3.26,114.95c4.77,13.35,15.04,24.59,27.9,30.55l-.64-.7s.64,.7,.64,.7c28.23,13.4,68.22,31.64,96.9,45.12l.5-1.07,40.87-88.04c1.48-3.26,3.72-7.81,5.02-11.12,7.57-19.14,3.68-42.64-11-57.35ZM15.66,75.32l.02-.08s0,.03-.02,.08Zm-.49,1.74l.03-.12s-.02,.08-.03,.12Zm.37-1.32l.03-.1s-.02,.07-.03,.1Zm23.12,60.51c1.35,1.48,2.96,3.23,3.58,3.9-.62-.67-2.23-2.43-3.58-3.9Zm-.82-.89c.05,.06,.11,.12,.17,.18-.06-.06-.11-.12-.17-.18Z"/><path class="cls-2" d="M59.14,130.26c.69-1.48,1.05-2.87,1.08-4.17,.03-1.3-.22-2.51-.73-3.62-.52-1.11-1.29-2.11-2.3-3s-2.21-1.66-3.6-2.31l-5.22-2.43c-.12-.05-.23-.06-.34-.02-.11,.04-.19,.12-.24,.23l-7.63,16.36c-.05,.12-.06,.23-.02,.34,.04,.11,.12,.19,.23,.24l5.22,2.43c1.39,.65,2.74,1.08,4.07,1.29,1.32,.21,2.57,.17,3.75-.13,1.17-.3,2.25-.87,3.23-1.72s1.81-2.01,2.5-3.49Zm-4.23-1.99c-.84,1.79-1.92,2.87-3.26,3.25-1.34,.38-2.84,.19-4.48-.58l-1.43-.66,4.85-10.41,1.43,.66c1.71,.8,2.82,1.86,3.33,3.18,.51,1.32,.36,2.84-.44,4.57Z"/><path class="cls-2" d="M74.02,133.26c.77-1.64,.83-3.22,.18-4.71-.64-1.49-1.97-2.7-3.98-3.63l-5.56-2.59c-.12-.05-.23-.06-.34-.02-.11,.04-.19,.12-.24,.23l-7.63,16.36c-.05,.12-.06,.23-.02,.34,.04,.11,.12,.19,.23,.24l3.4,1.58c.12,.05,.23,.06,.34,.02,.11-.04,.19-.12,.24-.23l2.86-6.13,.98,.46,1.36,8.37c.02,.15,.1,.26,.24,.32l3.67,1.71c.23,.11,.4,.12,.51,.04,.11-.08,.14-.25,.1-.5l-1.5-8.65c2.36,.2,4.08-.87,5.17-3.19Zm-5.53-.66c-.52,.14-1.1,.06-1.74-.24l-1.77-.83,1.9-4.08,1.77,.83c.31,.15,.58,.31,.8,.5,.22,.19,.38,.41,.49,.65,.11,.25,.16,.52,.14,.83-.02,.3-.12,.64-.29,1.01-.35,.74-.78,1.19-1.3,1.33Z"/><path class="cls-2" d="M71.66,146.46l10.72,5c.12,.05,.23,.06,.34,.02,.11-.04,.19-.12,.24-.23l1.2-2.58c.05-.12,.06-.23,.02-.34s-.12-.19-.23-.24l-6.93-3.23,1.7-3.66,6.34,2.96c.12,.05,.23,.06,.34,.02s.19-.12,.24-.23l1.14-2.44c.05-.12,.06-.23,.02-.34-.04-.11-.12-.19-.23-.24l-6.34-2.96,1.64-3.52,6.93,3.23c.12,.05,.23,.06,.34,.02s.19-.12,.24-.23l1.2-2.58c.05-.12,.06-.23,.02-.34-.04-.11-.12-.19-.23-.24l-10.72-5c-.12-.05-.23-.06-.34-.02-.11,.04-.19,.12-.24,.23l-7.63,16.36c-.05,.12-.06,.23-.02,.34,.04,.11,.12,.19,.23,.24Z"/><path class="cls-2" d="M96.3,157.95l3.58,1.67c.17,.08,.32,.09,.43,.03,.11-.06,.18-.19,.19-.39l1.08-19.43c0-.09-.02-.17-.06-.25-.04-.08-.11-.13-.18-.17l-2.88-1.34c-.07-.03-.15-.04-.24-.03-.09,.01-.16,.05-.23,.11l-14.17,13.32c-.14,.13-.2,.27-.18,.39,.03,.13,.13,.23,.3,.31l3.57,1.66c.18,.08,.34,.06,.49-.07l2.78-2.7,5.56,2.59-.29,3.86c-.01,.2,.07,.34,.26,.42Zm-2.99-9.34l3.76-3.78-.47,5.32-3.28-1.53Z"/><path class="cls-2" d="M113.2,145.2c0-.16-.09-.28-.24-.35l-3.25-1.51c-.12-.05-.23-.06-.34-.02-.11,.04-.19,.12-.24,.23l-7.63,16.36c-.05,.12-.06,.23-.02,.34,.04,.11,.12,.19,.23,.24l3.39,1.58c.12,.05,.23,.06,.34,.02,.11-.04,.19-.12,.25-.23l3.93-8.43,.85,8.14c0,.15,.09,.27,.25,.34l2.37,1.1c.16,.07,.3,.06,.42-.03l6.79-4.57-3.93,8.43c-.05,.12-.06,.23-.02,.34,.04,.11,.12,.19,.23,.24l3.39,1.58c.12,.05,.23,.06,.34,.02,.11-.04,.19-.12,.25-.23l7.63-16.36c.05-.12,.06-.23,.02-.34-.04-.11-.12-.19-.23-.24l-3.25-1.51c-.16-.07-.3-.06-.43,.04l-9.96,6.83-1.14-12.01Z"/></g></g></g></svg>