<?xml version="1.0" encoding="UTF-8"?><svg id="Layer_2" xmlns="http://www.w3.org/2000/svg" viewBox="0 0 298.52 190.36"><defs><style>.cls-1{fill:#00b7ba;}.cls-2{fill:#eb107b;}</style></defs><g id="Layer_1-2"><g><path class="cls-1" d="M107.14,91.85s6.71,10.98,6.71,10.98c3.74,6.28,9.76,15.58,13.77,21.79,1.2,1.76,4.28,6.34,5.44,8.04l1.87,2.65c.2,.37,.66,.56,1.06,.38,.4-.18,.57-.65,.39-1.05l-21.25-46.51,.04,.92-.04-.92c-2.84-6.14-4.48-12.83-4.75-19.58-1.06-20.39,11.19-40.53,29.81-48.91,23.01-9.97,46.48-5.64,62.92,16.44,2.35,3.13,4.39,6.46,6.03,9.91,12.5-6.25,27.46-7.11,40.59-2.31,28.51,10.15,42.12,43.59,28.64,70.86-5.01,10.36-13.62,18.88-24.01,23.83,0,0-10.67,5.01-10.67,5.01-21.03,9.84-63.03,29.56-84.53,39.81-2.08-4.4-11.63-24.64-11.63-24.64-.45-.92-1.86-.31-1.45,.68,1.34,3.97,3.21,9.35,4.66,13.38,1.62,4.62,4.16,11.65,5.88,16.21,30.99-10.54,61.8-22.27,92.15-34.54,2.48-.99,7.16-2.91,9.58-3.87,33.94-13.54,49.49-53.64,34.35-86.76l1.21,4.29-1.21-4.29c-3.59-7.93-8.78-15.24-15.2-21.25-16.36-15.44-40.34-21.17-61.85-15.67C195.94,.83,165.17-7.34,134.81,7.05l-3.66,2.4s3.26-2.22,3.26-2.22c-7.59,3.85-14.39,9.22-19.85,15.64-10.83,12.67-16.17,29.69-14.5,46.12,.78,8.1,3.3,15.92,7.08,22.86"/><path class="cls-2" d="M163.82,32.29c-5.78-5.9-13.07-10.2-20.86-12.74-.37-.12-.78,.04-.96,.4-.21,.43,0,.95,.45,1.11,25.87,12.11,35.65,42.64,22.13,67.48-14.8,26.88-29.19,54.27-42.96,81.75-27.64-13.55-55.74-26.73-83.7-39.38h0c-14.32-6.2-23.83-21.23-23.77-36.82,0-5.25,1.03-10.52,3-15.55h0c4.08-10.25,12.2-18.63,22.37-23.23,10.58-4.85,23.23-5.25,34.29-1.36l6.83,2.38s1.97-5.59,1.97-5.59c5.58-16.16,16.11-28.68,33.46-32.37,1.04-.16,.92-1.61-.12-1.59-18.68,1.05-32.14,13.47-39.89,29.68-6.1-2.74-12.73-4.35-19.43-4.64C26.48,40.34,1.19,64.39,.06,93.49c-.69,14.22,4.51,28.59,14.14,39.08,4.79,5.26,10.64,9.55,17.08,12.57,0,0-.6-.66-.75-.82,.15,.16,.75,.82,.75,.82,26.79,12.73,68.66,31.86,95.83,44.61,0,0,1.32,.61,1.32,.61,0,0,.61-1.32,.61-1.32,2.74-6.01,44.74-96.16,45.86-99.19,7.6-19.21,3.66-42.81-11.09-57.56ZM17.15,78.52v-.03s0,.02,0,.03Zm.13-.46l.2-.71c-.08,.27-.14,.51-.2,.71Zm.34-1.19l.16-.56c-.05,.18-.1,.37-.16,.56Zm.49-1.73l.05-.19s-.03,.11-.05,.19Zm22.02,58.2c.07,.08,.14,.15,.21,.23-.07-.08-.14-.16-.21-.23Z"/></g></g></svg>